<svg width="64" height="64" viewBox="0 0 64 64" fill="none" xmlns="http://www.w3.org/2000/svg">
  <!-- Hexagonal shield -->
  <path d="M32 2L56 16V48L32 62L8 48V16L32 2Z" fill="#06b6d4" opacity="0.15"/>
  <path d="M32 2L56 16V48L32 62L8 48V16L32 2Z" stroke="#06b6d4" stroke-width="2.5" stroke-linejoin="round"/>
  <path d="M32 8L50 19V45L32 56L14 45V19L32 8Z" stroke="#06b6d4" stroke-width="1.5" stroke-linejoin="round" opacity="0.4"/>
  <!-- Lock body -->
  <rect x="22" y="28" width="20" height="16" rx="3" fill="#06b6d4"/>
  <!-- Lock shackle -->
  <path d="M25 28V23C25 19.134 28.134 16 32 16C35.866 16 39 19.134 39 23V28" stroke="#06b6d4" stroke-width="3" stroke-linecap="round"/>
  <!-- Keyhole -->
  <circle cx="32" cy="35" r="2.5" fill="#0a0b10"/>
  <path d="M32 37L30.5 42H33.5L32 37Z" fill="#0a0b10"/>
</svg>
